<svg width="145" height="146" viewBox="0 0 145 146" fill="none" xmlns="http://www.w3.org/2000/svg">
<path d="M72.6116 145.062C91.772 145.062 110.148 137.451 123.696 123.902C137.244 110.354 144.856 91.9783 144.856 72.8179C144.856 53.6575 137.244 35.282 123.696 21.7335C110.148 8.1851 91.772 0.573685 72.6116 0.573685C53.4513 0.573685 35.0757 8.1851 21.5273 21.7335C7.97885 35.282 0.367432 53.6575 0.367432 72.8179C0.367432 91.9783 7.97885 110.354 21.5273 123.902C35.0757 137.451 53.4513 145.062 72.6116 145.062ZM72.6116 10.8943C89.0348 10.8943 104.785 17.4184 116.398 29.0313C128.011 40.6442 134.535 56.3947 134.535 72.8179C134.535 89.2411 128.011 104.992 116.398 116.605C104.785 128.217 89.0348 134.742 72.6116 134.742C56.1885 134.742 40.438 128.217 28.825 116.605C17.2121 104.992 10.688 89.2411 10.688 72.8179C10.688 56.3947 17.2121 40.6442 28.825 29.0313C40.438 17.4184 56.1885 10.8943 72.6116 10.8943ZM64.8712 50.8247L97.8662 72.8179L64.8712 94.8111V50.8247ZM66.5844 106.081L106.814 79.258C107.874 78.5511 108.743 77.5934 109.345 76.47C109.946 75.3465 110.26 74.0921 110.26 72.8179C110.26 71.5437 109.946 70.2893 109.345 69.1658C108.743 68.0424 107.874 67.0847 106.814 66.3779L66.5844 39.5546C65.4187 38.7775 64.064 38.3314 62.6647 38.2638C61.2654 38.1962 59.874 38.5096 58.6388 39.1706C57.4036 39.8316 56.3709 40.8155 55.651 42.0173C54.931 43.2191 54.5507 44.5937 54.5506 45.9947V99.6515C54.5507 101.052 54.931 102.427 55.651 103.629C56.3709 104.831 57.4036 105.814 58.6388 106.476C59.874 107.137 61.2654 107.45 62.6647 107.382C64.064 107.315 65.4187 106.869 66.5844 106.092V106.081Z" fill="#F8F8F8"/>
</svg>
