<svg width="14" height="14" viewBox="0 0 14 14" fill="none" xmlns="http://www.w3.org/2000/svg">
<path d="M7 14C10.8656 14 14 10.8656 14 7C14 3.13437 10.8656 0 7 0C3.13437 0 0 3.13437 0 7C0 10.8656 3.13437 14 7 14ZM4.11719 8.47344L6.89844 4.62969C6.90995 4.61372 6.92508 4.60071 6.94261 4.59174C6.96013 4.58277 6.97953 4.57809 6.99922 4.57809C7.0189 4.57809 7.03831 4.58277 7.05583 4.59174C7.07335 4.60071 7.08849 4.61372 7.1 4.62969L9.88125 8.47344C9.94062 8.55625 9.88125 8.67188 9.77969 8.67188H9.04688C8.8875 8.67188 8.73594 8.59531 8.64219 8.46562L7 6.19375L5.35625 8.46562C5.2625 8.59531 5.1125 8.67188 4.95156 8.67188H4.21875C4.11719 8.67188 4.05781 8.55625 4.11719 8.47344Z" fill="white"/>
</svg>
