<svg width="17" height="17" viewBox="0 0 17 17" fill="none" xmlns="http://www.w3.org/2000/svg">
<path d="M0 2.40625C0 1.078 1.078 0 2.40625 0H9.96875C11.2984 0 12.375 1.078 12.375 2.40625V2.75H12.9002C13.2835 2.75001 13.6591 2.8568 13.9851 3.05838C14.311 3.25997 14.5743 3.54837 14.7455 3.89125L16.2827 6.96437C16.4258 7.25088 16.5002 7.56676 16.5 7.887V12.375C16.5 12.922 16.2827 13.4466 15.8959 13.8334C15.5091 14.2202 14.9845 14.4375 14.4375 14.4375H13.6634C13.5114 15.0284 13.1673 15.552 12.6851 15.9259C12.203 16.2998 11.6101 16.5027 11 16.5027C10.3899 16.5027 9.79704 16.2998 9.31487 15.9259C8.8327 15.552 8.48856 15.0284 8.33662 14.4375H6.78837C6.63157 15.0463 6.27094 15.5829 5.76654 15.9581C5.26214 16.3333 4.64442 16.5243 4.01628 16.4994C3.38815 16.4745 2.78751 16.2351 2.31442 15.8211C1.84132 15.4072 1.52433 14.8436 1.41625 14.2244C0.994184 14.0339 0.636057 13.7256 0.384845 13.3366C0.133633 12.9476 6.22132e-06 12.4943 0 12.0312V2.40625ZM8.33662 13.0625C8.48907 12.4721 8.83343 11.9491 9.31555 11.5757C9.79768 11.2024 10.3902 10.9998 11 11V2.40625C11 2.13275 10.8913 1.87044 10.698 1.67705C10.5046 1.48365 10.2423 1.375 9.96875 1.375H2.40625C2.13275 1.375 1.87044 1.48365 1.67705 1.67705C1.48365 1.87044 1.375 2.13275 1.375 2.40625V12.0312C1.375 12.2719 1.4575 12.4932 1.595 12.6692C1.82023 12.1406 2.2054 11.6958 2.69641 11.3973C3.18742 11.0988 3.75961 10.9616 4.3326 11.005C4.90559 11.0484 5.45059 11.2701 5.89105 11.6392C6.33152 12.0082 6.64532 12.506 6.78837 13.0625H8.33662ZM12.375 11.3685C12.6915 11.5511 12.9685 11.795 13.1897 12.0858C13.4109 12.3767 13.5719 12.7087 13.6634 13.0625H14.4375C14.6198 13.0625 14.7947 12.9901 14.9236 12.8611C15.0526 12.7322 15.125 12.5573 15.125 12.375V8.25H12.375V11.3685ZM12.375 6.875H14.7001L13.5149 4.5045C13.4577 4.39045 13.37 4.29455 13.2614 4.22752C13.1529 4.1605 13.0278 4.125 12.9002 4.125H12.375V6.875ZM4.125 12.375C3.76033 12.375 3.41059 12.5199 3.15273 12.7777C2.89487 13.0356 2.75 13.3853 2.75 13.75C2.75 14.1147 2.89487 14.4644 3.15273 14.7223C3.41059 14.9801 3.76033 15.125 4.125 15.125C4.48967 15.125 4.83941 14.9801 5.09727 14.7223C5.35513 14.4644 5.5 14.1147 5.5 13.75C5.5 13.3853 5.35513 13.0356 5.09727 12.7777C4.83941 12.5199 4.48967 12.375 4.125 12.375ZM9.625 13.75C9.625 14.1147 9.76987 14.4644 10.0277 14.7223C10.2856 14.9801 10.6353 15.125 11 15.125C11.3647 15.125 11.7144 14.9801 11.9723 14.7223C12.2301 14.4644 12.375 14.1147 12.375 13.75C12.375 13.3853 12.2301 13.0356 11.9723 12.7777C11.7144 12.5199 11.3647 12.375 11 12.375C10.6353 12.375 10.2856 12.5199 10.0277 12.7777C9.76987 13.0356 9.625 13.3853 9.625 13.75Z" fill="#F6F4F6"/>
</svg>
