<svg width="14" height="15" viewBox="0 0 14 15" fill="none" xmlns="http://www.w3.org/2000/svg">
<path d="M13.4411 6.36999L7.57512 0.511992C7.46888 0.403564 7.34208 0.317426 7.20213 0.25862C7.06219 0.199815 6.91192 0.169525 6.76012 0.169525C6.60832 0.169525 6.45805 0.199815 6.3181 0.25862C6.17816 0.317426 6.05136 0.403564 5.94512 0.511992L5.27012 1.18699C5.15899 1.29008 5.07104 1.4156 5.01208 1.55524C4.95312 1.69488 4.9245 1.84546 4.92812 1.99699C4.9245 2.14853 4.95312 2.2991 5.01208 2.43874C5.07104 2.57838 5.15899 2.7039 5.27012 2.80699L7.90812 5.45399H1.56912C1.42502 5.44951 1.28177 5.47757 1.15002 5.53609C1.01827 5.59461 0.901402 5.68208 0.808119 5.79199C0.612405 6.01771 0.507928 6.30832 0.515118 6.60699V7.75999C0.507928 8.05866 0.612405 8.34927 0.808119 8.57499C0.901402 8.68491 1.01827 8.77238 1.15002 8.8309C1.28177 8.88941 1.42502 8.91748 1.56912 8.91299H7.90812L5.27012 11.551C5.16167 11.6581 5.07556 11.7857 5.01679 11.9264C4.95802 12.0671 4.92776 12.218 4.92776 12.3705C4.92776 12.5229 4.95802 12.6739 5.01679 12.8146C5.07556 12.9552 5.16167 13.0828 5.27012 13.19L5.94512 13.865C6.1626 14.0786 6.45526 14.1983 6.76012 14.1983C7.06497 14.1983 7.35764 14.0786 7.57512 13.865L13.4411 8.00299C13.5496 7.89643 13.6351 7.76879 13.6923 7.62794C13.7496 7.48709 13.7774 7.336 13.7741 7.18399C13.7797 7.03243 13.7529 6.88142 13.6955 6.74105C13.6381 6.60068 13.5513 6.47417 13.4411 6.36999V6.36999Z" fill="#F6F4F6"/>
</svg>
