<svg width="79" height="78" viewBox="0 0 79 78" fill="none" xmlns="http://www.w3.org/2000/svg">
<path d="M36.8683 0.847458H6.54474C5.66696 0.847458 4.94877 1.56631 4.94877 2.44492V32.7966C4.94877 33.6752 5.66696 34.3941 6.54474 34.3941H36.8683C37.7461 34.3941 38.4643 33.6752 38.4643 32.7966V2.44492C38.4643 1.56631 37.7461 0.847458 36.8683 0.847458ZM31.6814 27.6049H11.7317V7.63665H31.6814V27.6049ZM76.7677 0.847458H46.4441C45.5663 0.847458 44.8482 1.56631 44.8482 2.44492V32.7966C44.8482 33.6752 45.5663 34.3941 46.4441 34.3941H76.7677C77.6454 34.3941 78.3636 33.6752 78.3636 32.7966V2.44492C78.3636 1.56631 77.6454 0.847458 76.7677 0.847458ZM71.5807 27.6049H51.6311V7.63665H71.5807V27.6049ZM76.7677 40.7839H46.4441C45.5663 40.7839 44.8482 41.5028 44.8482 42.3814V72.733C44.8482 73.6116 45.5663 74.3305 46.4441 74.3305H76.7677C77.6454 74.3305 78.3636 73.6116 78.3636 72.733V42.3814C78.3636 41.5028 77.6454 40.7839 76.7677 40.7839ZM71.5807 67.5413H51.6311V47.5731H71.5807V67.5413ZM32.8783 57.5572H20.1105V44.7775C20.1105 44.3382 19.7514 43.9788 19.3125 43.9788H14.5246C14.0857 43.9788 13.7266 44.3382 13.7266 44.7775V57.5572H0.958831C0.519937 57.5572 0.160843 57.9166 0.160843 58.3559V63.1483C0.160843 63.5876 0.519937 63.947 0.958831 63.947H13.7266V76.7267C13.7266 77.166 14.0857 77.5254 14.5246 77.5254H19.3125C19.7514 77.5254 20.1105 77.166 20.1105 76.7267V63.947H32.8783C33.3172 63.947 33.6763 63.5876 33.6763 63.1483V58.3559C33.6763 57.9166 33.3172 57.5572 32.8783 57.5572Z" fill="white"/>
</svg>
