<svg width="39" height="49" viewBox="0 0 39 49" fill="none" xmlns="http://www.w3.org/2000/svg">
<path d="M19.5 0.4375C14.4876 0.443413 9.68214 2.43722 6.13781 5.98154C2.59348 9.52587 0.599683 14.3313 0.59377 19.3438C0.587767 23.4399 1.92577 27.4249 4.40252 30.6875C4.40252 30.6875 4.91815 31.3664 5.00236 31.4644L19.5 48.5625L34.0045 31.4558C34.0802 31.3647 34.5975 30.6875 34.5975 30.6875L34.5992 30.6823C37.0748 27.4212 38.4121 23.438 38.4063 19.3438C38.4004 14.3313 36.4066 9.52587 32.8622 5.98154C29.3179 2.43722 24.5125 0.443413 19.5 0.4375V0.4375ZM21.2188 27.9375H17.7813V24.5H21.2188V27.9375ZM21.2188 21.0625H17.7813V17.625H21.2188V21.0625ZM28.0938 27.9375H24.6563V14.1875H14.3438V27.9375H10.9063V14.1875C10.9072 13.2761 11.2696 12.4023 11.9141 11.7578C12.5586 11.1134 13.4324 10.7509 14.3438 10.75H24.6563C25.5677 10.7509 26.4415 11.1134 27.0859 11.7578C27.7304 12.4023 28.0929 13.2761 28.0938 14.1875V27.9375Z" fill="#F6F4F6"/>
</svg>
