<svg width="86" height="86" viewBox="0 0 86 86" fill="none" xmlns="http://www.w3.org/2000/svg">
<path d="M81.9885 70.5638H81.9889L81.9881 70.5498C81.642 64.3826 78.6589 61.0873 75.7268 59.3434C72.8101 57.6086 69.9586 57.4159 69.8436 57.4118L69.8436 57.4117H69.8347L36.7146 57.4138V57.4136L36.705 57.414C36.6254 57.417 33.791 57.6099 30.8828 59.3537C27.9593 61.1067 24.9768 64.4197 24.6319 70.6205L24.6315 70.6204V70.6343V79.8443C24.6315 80.2509 24.793 80.6407 25.0804 80.9282C25.3678 81.2156 25.7577 81.3771 26.1642 81.3771H80.4558C80.8623 81.3771 81.2521 81.2156 81.5396 80.9282C81.827 80.6407 81.9885 80.2509 81.9885 79.8443V70.5638ZM78.923 70.6414V78.3116H27.699L27.6969 70.7118C27.9675 65.8906 30.1817 63.349 32.3461 62.0005C34.4891 60.6653 36.6035 60.4886 36.7939 60.475L69.7516 60.4729C69.9672 60.4876 72.106 60.6624 74.2647 61.9936C76.4381 63.3339 78.6514 65.8573 78.923 70.6414ZM27.3769 40.7787H27.3785L27.3871 40.7787L27.3889 40.7787C30.0898 40.7589 32.4356 39.7883 34.3487 37.8928L34.3494 37.8921C36.2649 35.9788 37.2362 33.6318 37.2362 30.9253C37.2362 28.2064 36.2631 25.8549 34.3491 23.9561C32.4339 22.0432 30.0873 21.0698 27.3828 21.0698C24.6642 21.0698 22.3127 22.0427 20.4182 23.9544C18.5024 25.8552 17.5294 28.2066 17.5294 30.9253C17.5294 33.6297 18.5028 35.9787 20.4161 37.8898C22.3146 39.7884 24.659 40.7611 27.3769 40.7787ZM21.9083 25.4439L21.9083 25.4439L21.91 25.4422C23.4232 23.9146 25.2104 23.1732 27.3849 23.1732C29.5461 23.1732 31.3339 23.9142 32.867 25.4494L32.868 25.4503C34.3956 26.9635 35.137 28.7507 35.137 30.9274C35.137 33.0907 34.396 34.8763 32.8676 36.4028C31.339 37.9187 29.5488 38.6625 27.3849 38.6795C25.2053 38.6625 23.4178 37.9225 21.9051 36.4056L21.9046 36.4051C20.374 34.8786 19.6328 33.0909 19.6328 30.9274C19.6328 28.7488 20.3741 26.9636 21.9083 25.4439ZM53.3111 56.0795C62.0327 56.0795 69.127 48.9853 69.127 40.2678C69.127 31.5419 62.0306 24.4476 53.3111 24.4476C44.5894 24.4476 37.493 31.5441 37.493 40.2678C37.493 48.9853 44.5895 56.0795 53.3111 56.0795ZM40.5584 40.2655C40.5607 33.233 46.281 27.5088 53.311 27.5088C56.6922 27.5139 59.9333 28.8597 62.3236 31.2512C64.7139 33.6427 66.0581 36.8845 66.0615 40.2657C66.0576 43.6459 64.7129 46.8865 62.3225 49.2765C59.9321 51.6665 56.6913 53.0106 53.3111 53.014C49.9306 53.0106 46.6896 51.6666 44.2988 49.2766C41.9081 46.8866 40.5629 43.6459 40.5584 40.2655Z" fill="#F6F4F6" stroke="#F6F4F6" stroke-width="0.5"/>
<path d="M26.6651 35.0042H26.6651C26.4117 35.0048 26.1669 34.913 25.9764 34.746C25.9762 34.7458 25.9759 34.7456 25.9757 34.7454L22.9648 32.1383C22.9648 32.1383 22.9648 32.1383 22.9648 32.1383C22.8605 32.0481 22.775 31.9381 22.7133 31.8148C22.6515 31.6915 22.6146 31.5573 22.6047 31.4197C22.5948 31.2821 22.6121 31.144 22.6556 31.0131C22.6991 30.8822 22.7679 30.7612 22.8582 30.6569C22.9484 30.5526 23.0584 30.4672 23.1817 30.4054C23.305 30.3436 23.4392 30.3067 23.5768 30.2968C23.7144 30.2869 23.8526 30.3042 23.9834 30.3477C24.1143 30.3911 24.2352 30.4599 24.3395 30.5502L26.6651 35.0042ZM26.6651 35.0042C26.8153 35.0039 26.9638 34.9714 27.1005 34.9091L26.9968 34.6816L27.1005 34.9091C27.2371 34.8468 27.359 34.7561 27.4578 34.6429L27.4579 34.6428L32.886 28.4216L32.8861 28.4214C33.0692 28.2112 33.1612 27.9369 33.142 27.6589C33.1228 27.3809 32.9939 27.1218 32.7837 26.9388C32.5736 26.7558 32.2993 26.6637 32.0212 26.6829C31.7432 26.7021 31.4842 26.831 31.3012 27.0412L26.5627 32.4719L24.3396 30.5503L26.6651 35.0042ZM43.1883 20.982V21.7788L43.6425 21.1262L43.6427 21.1259L43.6428 21.1259L43.6431 21.1254L43.6433 21.1251L43.6434 21.125L43.6437 21.1247L43.6524 21.1133C43.6612 21.1021 43.6759 21.0842 43.6969 21.0609C43.739 21.0143 43.8062 20.9462 43.9016 20.8679C44.0921 20.7116 44.3961 20.5135 44.8396 20.3637L44.8396 20.3637C45.1983 20.2424 45.4912 20.1637 45.6932 20.1156C45.7942 20.0916 45.8724 20.0752 45.9247 20.0649C45.9508 20.0597 45.9705 20.0561 45.9832 20.0539L45.9972 20.0514L46.0002 20.0509L46.0005 20.0509L46.0005 20.0509L46.0006 20.0509L46.0007 20.0509L46.0007 20.0509L46.211 20.0172V19.804V13.5635C46.211 11.795 44.8959 10.2478 42.8953 10.2478H38.2048H37.9548V10.4978V13.0205V13.2705H38.2048H43.1883V20.982ZM27.3529 13.3435L27.3524 13.3435C26.9785 13.3442 26.6082 13.2712 26.2627 13.1285C25.9171 12.9858 25.6032 12.7762 25.3388 12.5119C25.0745 12.2475 24.8649 11.9336 24.7222 11.588C24.5795 11.2425 24.5065 10.8722 24.5072 10.4983V10.4978C24.5072 8.9213 25.7764 7.65215 27.3529 7.65215C28.9294 7.65215 30.1985 8.9213 30.1985 10.4978C30.1985 12.0743 28.9294 13.3435 27.3529 13.3435ZM19.6287 16.9413H35.1091C36.0212 16.9413 36.892 16.2899 36.892 15.1285V11.4684C36.892 9.94046 35.6745 8.68501 34.1407 8.68501H33.7368C32.947 5.99247 30.2845 4.0565 27.3529 4.0565C24.4214 4.0565 21.7588 5.99238 20.971 8.68501H20.5972C19.0672 8.68501 17.8159 9.93657 17.8159 11.4684V15.1285C17.8159 16.1735 18.5889 16.9413 19.6287 16.9413Z" fill="#F6F4F6" stroke="#F6F4F6" stroke-width="0.5"/>
<path d="M34.7457 48.1853L34.6923 48.0071H34.5062H11.5474V13.2705H16.5309H16.7809V13.0205V10.4978V10.2478H16.5309H11.8425C10.0593 10.2478 8.55887 11.7847 8.55887 13.5635V47.744C8.55887 49.5274 10.066 50.9956 11.8425 50.9956H36.9156V50.9863C36.9818 50.9621 37.1165 50.879 37.1656 50.7456V50.4956H36.9671C36.9587 50.4919 36.9492 50.4875 36.9386 50.4825C36.8897 50.4598 36.8179 50.4247 36.7295 50.3772C36.5524 50.2818 36.3106 50.1373 36.0538 49.9421C35.5368 49.549 34.9799 48.9664 34.7457 48.1853ZM37.0049 50.5122L37.0041 50.5118C37.0056 50.5124 37.006 50.5126 37.0049 50.5122Z" fill="#F6F4F6" stroke="#F6F4F6" stroke-width="0.5"/>
</svg>
