<svg width="46" height="44" viewBox="0 0 46 44" fill="none" xmlns="http://www.w3.org/2000/svg">
<path d="M0.5 5.8125C0.5 4.46984 1.03337 3.18217 1.98277 2.23277C2.93217 1.28337 4.21984 0.75 5.5625 0.75H28.0625C29.4052 0.75 30.6928 1.28337 31.6422 2.23277C32.5916 3.18217 33.125 4.46984 33.125 5.8125V7.5H36.6125C38.57 7.5 40.352 8.62725 41.189 10.3958L45.014 18.4665C45.3335 19.1437 45.5 19.884 45.5 20.6332V32.8125C45.5 34.1552 44.9666 35.4428 44.0172 36.3922C43.0678 37.3416 41.7802 37.875 40.4375 37.875H36.4077C36.1446 39.4506 35.3311 40.8817 34.1121 41.914C32.893 42.9463 31.3474 43.5129 29.75 43.5129C28.1526 43.5129 26.607 42.9463 25.3879 41.914C24.1689 40.8817 23.3554 39.4506 23.0923 37.875H18.41C18.147 39.453 17.332 40.8863 16.1105 41.9193C14.889 42.9523 13.3402 43.5179 11.7405 43.5152C10.1407 43.5125 8.59387 42.9417 7.37582 41.9046C6.15778 40.8674 5.34769 39.4314 5.09 37.8525C3.83471 37.7348 2.66851 37.153 1.81958 36.2208C0.970652 35.2887 0.5001 34.0733 0.5 32.8125V5.8125ZM42.125 28.875H39.3125C38.8649 28.875 38.4357 29.0528 38.1193 29.3693C37.8028 29.6857 37.625 30.1149 37.625 30.5625C37.625 31.0101 37.8028 31.4393 38.1193 31.7557C38.4357 32.0722 38.8649 32.25 39.3125 32.25H42.125V28.875ZM41.4118 18.75L38.1425 11.8403C38.0057 11.5514 37.7897 11.3074 37.5197 11.1365C37.2496 10.9656 36.9366 10.8749 36.617 10.875H33.125V18.75H41.4118ZM11.75 40.125C12.6451 40.125 13.5036 39.7694 14.1365 39.1365C14.7694 38.5035 15.125 37.6451 15.125 36.75C15.125 35.8549 14.7694 34.9965 14.1365 34.3635C13.5036 33.7306 12.6451 33.375 11.75 33.375C10.8549 33.375 9.99645 33.7306 9.36351 34.3635C8.73058 34.9965 8.375 35.8549 8.375 36.75C8.375 37.6451 8.73058 38.5035 9.36351 39.1365C9.99645 39.7694 10.8549 40.125 11.75 40.125ZM33.125 36.75C33.125 35.8549 32.7694 34.9965 32.1365 34.3635C31.5035 33.7306 30.6451 33.375 29.75 33.375C28.8549 33.375 27.9964 33.7306 27.3635 34.3635C26.7306 34.9965 26.375 35.8549 26.375 36.75C26.375 37.6451 26.7306 38.5035 27.3635 39.1365C27.9964 39.7694 28.8549 40.125 29.75 40.125C30.6451 40.125 31.5035 39.7694 32.1365 39.1365C32.7694 38.5035 33.125 37.6451 33.125 36.75Z" fill="#F6F4F6"/>
</svg>
